<svg width="177" height="45" viewBox="0 0 177 45" fill="none" xmlns="http://www.w3.org/2000/svg">
  <path d="M23.0339 0C23.0339 0 26.7352 9.69206 10.8726 16.2021C2.25329 19.7386 -4.36686 28.8028 3.53759 42.8047C4.19221 36.5461 6.99917 22.7466 19.0689 19.5977C19.0689 19.5977 7.83513 24.0941 6.84277 44.4471C12.6152 45.3146 26.1531 45.8975 30.1725 33.3222C35.4801 16.7074 23.0339 0 23.0339 0Z" fill="#8DCE97" />
  <path d="M6.848 44.3624C19.1023 39.1275 28.0189 26.8641 29.2495 12.2243C26.7442 4.99102 23.0339 0 23.0339 0C23.0339 0 26.7352 9.69205 10.8726 16.2021C2.25329 19.7386 -4.36686 28.8028 3.53759 42.8047C4.19221 36.5461 6.99916 22.7466 19.0689 19.5977C19.0682 19.5977 7.86786 24.0829 6.848 44.3624Z" fill="#8DCE97" />
  <path d="M2.3148 16.5251C2.9475 16.5251 3.4604 15.9761 3.4604 15.2988C3.4604 14.6216 2.9475 14.0726 2.3148 14.0726C1.6821 14.0726 1.16919 14.6216 1.16919 15.2988C1.16919 15.9761 1.6821 16.5251 2.3148 16.5251Z" fill="#8DCE97" />
  <path d="M5.91511 14.9501C6.36702 14.9501 6.73337 14.5576 6.73337 14.0736C6.73337 13.5895 6.36702 13.1971 5.91511 13.1971C5.46321 13.1971 5.09686 13.5895 5.09686 14.0736C5.09686 14.5576 5.46321 14.9501 5.91511 14.9501Z" fill="#8DCE97" />
  <path d="M5.17863 7.94153C6.30841 7.94153 7.22427 6.96119 7.22427 5.75189C7.22427 4.54259 6.30841 3.56226 5.17863 3.56226C4.04886 3.56226 3.133 4.54259 3.133 5.75189C3.133 6.96119 4.04886 7.94153 5.17863 7.94153Z" fill="#8DCE97" />
  <path d="M11.4793 11.4463C11.8409 11.4463 12.1339 11.1323 12.1339 10.7451C12.1339 10.3579 11.8409 10.0439 11.4793 10.0439C11.1178 10.0439 10.8247 10.3579 10.8247 10.7451C10.8247 11.1323 11.1178 11.4463 11.4793 11.4463Z" fill="#8DCE97" />
  <path d="M16.9622 8.81756C18.0016 8.81756 18.8442 7.91563 18.8442 6.80307C18.8442 5.6905 18.0016 4.78857 16.9622 4.78857C15.9228 4.78857 15.0802 5.6905 15.0802 6.80307C15.0802 7.91563 15.9228 8.81756 16.9622 8.81756Z" fill="#8DCE97" />
  <g opacity="0.8">
    <path opacity="0.8" d="M50.5891 40.4623C48.7532 40.4623 47.0939 40.0356 45.6111 39.1822C44.1458 38.3289 42.9896 37.1507 42.1423 35.648C41.3126 34.1267 40.8978 32.4292 40.8978 30.5555C40.8978 28.6817 41.3126 26.9934 42.1423 25.4907C42.9896 23.9694 44.1547 22.7821 45.6375 21.9287C47.1204 21.0753 48.7798 20.6486 50.6157 20.6486C51.9925 20.6486 53.2636 20.8898 54.4287 21.3722C55.5937 21.8545 56.5823 22.5595 57.3943 23.4871L56.1498 24.795C54.7023 23.2552 52.8752 22.4853 50.6686 22.4853C49.2034 22.4853 47.8706 22.8377 46.6702 23.5427C45.4698 24.2477 44.5254 25.2125 43.8369 26.4368C43.1662 27.6613 42.8307 29.0342 42.8307 30.5555C42.8307 32.0768 43.1662 33.4496 43.8369 34.674C44.5254 35.8985 45.4698 36.8632 46.6702 37.5682C47.8706 38.2731 49.2034 38.6257 50.6686 38.6257C52.8929 38.6257 54.7199 37.8465 56.1498 36.2881L57.3943 37.596C56.5823 38.5236 55.585 39.2379 54.4022 39.7388C53.2371 40.2212 51.9661 40.4623 50.5891 40.4623Z" fill="#213E26" />
    <path opacity="0.8" d="M65.8396 25.5464C67.6578 25.5464 69.0525 26.0288 70.0233 26.9935C70.9942 27.9397 71.4797 29.3496 71.4797 31.2234V40.2955H69.6791V38.0135C69.2554 38.7742 68.6287 39.3678 67.7991 39.7945C66.987 40.2213 66.0161 40.4346 64.8864 40.4346C63.3328 40.4346 62.0972 40.045 61.1792 39.2657C60.2613 38.4866 59.8024 37.4569 59.8024 36.1768C59.8024 34.9339 60.226 33.932 61.0733 33.1714C61.9383 32.4107 63.3064 32.0304 65.1776 32.0304H69.5997V31.1399C69.5997 29.8784 69.2642 28.9229 68.5934 28.2736C67.9227 27.6057 66.9429 27.2717 65.6542 27.2717C64.7716 27.2717 63.9243 27.4294 63.1122 27.7448C62.3002 28.0417 61.6029 28.4592 61.0203 28.9972L60.173 27.5222C60.8792 26.8914 61.7265 26.4091 62.7151 26.0751C63.7036 25.7227 64.7451 25.5464 65.8396 25.5464ZM65.1776 38.8762C66.2368 38.8762 67.1459 38.6257 67.905 38.1248C68.664 37.6053 69.2289 36.8632 69.5997 35.8986V33.5053H65.2306C62.8475 33.5053 61.6558 34.3773 61.6558 36.1212C61.6558 36.9746 61.9648 37.6518 62.5826 38.1526C63.2005 38.635 64.0655 38.8762 65.1776 38.8762Z" fill="#213E26" />
    <path opacity="0.8" d="M80.3196 40.4346C79.1898 40.4346 78.1041 40.2676 77.0626 39.9336C76.0388 39.5812 75.2356 39.1452 74.653 38.6257L75.5003 37.0673C76.0828 37.5497 76.8155 37.9486 77.6981 38.264C78.5808 38.5608 79.4987 38.7092 80.4519 38.7092C81.7229 38.7092 82.6585 38.5051 83.2587 38.097C83.8766 37.6702 84.1855 37.0766 84.1855 36.3159C84.1855 35.778 84.0178 35.3605 83.6824 35.0637C83.347 34.7483 82.9233 34.5164 82.4114 34.368C81.8995 34.201 81.2198 34.0434 80.3725 33.895C79.2427 33.6723 78.3336 33.4496 77.6451 33.227C76.9567 32.9859 76.3653 32.587 75.8711 32.0304C75.3945 31.4739 75.1561 30.7039 75.1561 29.7207C75.1561 28.4962 75.6415 27.4944 76.6124 26.7152C77.5834 25.936 78.9338 25.5464 80.6638 25.5464C81.564 25.5464 82.4644 25.6763 83.3646 25.936C84.265 26.1772 85.0063 26.5019 85.5889 26.91L84.768 28.4962C83.6206 27.6613 82.2525 27.244 80.6638 27.244C79.4634 27.244 78.5543 27.4666 77.9364 27.9118C77.3362 28.3571 77.0362 28.9414 77.0362 29.665C77.0362 30.2215 77.2038 30.6668 77.5392 31.0008C77.8923 31.3348 78.3247 31.5851 78.8368 31.7521C79.3487 31.9006 80.0547 32.0583 80.9551 32.2252C82.0672 32.4479 82.9587 32.6705 83.6295 32.8931C84.3003 33.1157 84.874 33.4961 85.3506 34.0341C85.8272 34.5721 86.0656 35.3142 86.0656 36.2603C86.0656 37.5404 85.5536 38.5608 84.5297 39.3215C83.5235 40.0636 82.1201 40.4346 80.3196 40.4346Z" fill="#213E26" />
    <path opacity="0.8" d="M94.4133 25.5464C96.2316 25.5464 97.6261 26.0288 98.5971 26.9935C99.5679 27.9397 100.053 29.3496 100.053 31.2234V40.2955H98.2528V38.0135C97.8292 38.7742 97.2025 39.3678 96.3728 39.7945C95.5608 40.2213 94.5899 40.4346 93.4601 40.4346C91.9066 40.4346 90.671 40.045 89.753 39.2657C88.8351 38.4866 88.376 37.4569 88.376 36.1768C88.376 34.9339 88.7997 33.932 89.647 33.1714C90.5121 32.4107 91.8802 32.0304 93.7514 32.0304H98.1733V31.1399C98.1733 29.8784 97.838 28.9229 97.1671 28.2736C96.4963 27.6057 95.5167 27.2717 94.228 27.2717C93.3453 27.2717 92.498 27.4294 91.6859 27.7448C90.874 28.0417 90.1766 28.4592 89.5941 28.9972L88.7468 27.5222C89.4529 26.8914 90.3002 26.4091 91.2887 26.0751C92.2774 25.7227 93.3189 25.5464 94.4133 25.5464ZM93.7514 38.8762C94.8105 38.8762 95.7197 38.6257 96.4787 38.1248C97.2378 37.6053 97.8027 36.8632 98.1733 35.8986V33.5053H93.8043C91.4212 33.5053 90.2296 34.3773 90.2296 36.1212C90.2296 36.9746 90.5385 37.6518 91.1564 38.1526C91.7742 38.635 92.6393 38.8762 93.7514 38.8762Z" fill="#213E26" />
    <path opacity="0.8" d="M113.369 40.2955L118.929 25.9361C119.273 25.0456 119.511 24.2664 119.511 23.6264C119.511 22.2905 118.69 20.5652 116.493 20.5652C114.904 20.5652 113.553 21.5392 113.553 23.2924C113.553 24.7951 114.718 26.0196 116.202 26.0196C117.764 26.0196 118.479 24.8786 118.479 23.682C118.479 22.5689 117.896 21.9844 117.128 21.7062C116.97 21.6505 116.917 21.567 116.917 21.4279C116.917 21.2888 117.022 21.1774 117.155 21.1774C117.234 21.1774 117.34 21.2053 117.446 21.2331C118.214 21.4557 119.009 22.2905 119.009 23.6541C119.009 24.5447 118.479 25.7969 118.029 26.9101L114.798 35.0359H114.401L109.582 21.2609H111.727V20.8157H102.326V21.2609H103.862L109.873 38.2641C110.323 39.5442 110.986 40.2955 112.282 40.2955H113.369Z" fill="#213E26" />
    <path opacity="0.8" d="M128.478 39.9057C126.2 39.9057 125.671 37.8464 125.671 34.7574H127.418C130.491 34.7574 133.244 33.867 133.244 30.945C133.244 27.7726 130.225 26.7151 127.18 26.7151C122.97 26.7151 120.296 29.3031 120.296 33.6443C120.296 38.236 123.049 40.5736 127.684 40.5736C130.835 40.5736 132.794 38.7091 133.297 35.7314L132.821 35.6479L132.768 35.8984C132.291 38.3474 130.569 39.9057 128.478 39.9057ZM125.645 32.2529C125.645 27.9396 126.2 27.216 127.18 27.216C127.895 27.216 128.425 27.9673 128.425 30.9171C128.425 32.9486 127.975 34.2566 126.306 34.2566H125.645V32.2529Z" fill="#213E26" />
    <path opacity="0.8" d="M140.847 28.9692V26.7151C139.073 27.1047 137.379 27.2438 135.551 27.2438H133.963V27.6891H135.843V39.5996H134.201V40.0448H142.727V39.5996H140.741V34.0617C140.741 29.6649 141.774 27.216 143.998 27.216C144.978 27.216 145.56 27.7726 145.799 28.1064C145.905 28.2734 145.958 28.3848 145.958 28.5239C145.958 28.6909 145.851 28.7743 145.72 28.7743C145.534 28.7743 145.454 28.5517 145.296 28.3569C145.137 28.1622 144.74 27.8003 144.131 27.8003C143.098 27.8003 142.383 28.6631 142.383 29.7762C142.383 31.0285 143.31 31.8632 144.449 31.8632C145.878 31.8632 146.699 30.6945 146.699 29.3588C146.699 27.9117 145.56 26.7151 143.972 26.7151C142.542 26.7151 141.509 27.6891 140.98 28.9692H140.847Z" fill="#213E26" />
    <path opacity="0.8" d="M161.012 20.2867C159.239 20.6764 157.544 20.8155 155.717 20.8155H154.129V21.2607H156.008V28.6909H155.876C155.267 27.383 154.182 26.7151 152.54 26.7151C148.726 26.7151 147.376 29.6371 147.376 33.6444C147.376 37.3733 148.886 40.5736 152.169 40.5736C154.022 40.5736 155.187 39.9335 155.876 38.1247H156.008V40.0449H162.654V39.5996H161.012V20.2867ZM156.114 33.6444C156.114 36.1767 155.478 39.3214 154.102 39.3214C152.91 39.3214 152.725 36.7889 152.725 33.6444C152.725 29.6927 153.069 27.7447 154.102 27.7447C155.081 27.7447 156.114 29.4144 156.114 32.893V33.6444Z" fill="#213E26" />
    <path opacity="0.8" d="M171.74 39.9057C169.462 39.9057 168.933 37.8464 168.933 34.7574H170.68C173.752 34.7574 176.506 33.867 176.506 30.945C176.506 27.7726 173.487 26.7151 170.442 26.7151C166.231 26.7151 163.557 29.3031 163.557 33.6443C163.557 38.236 166.311 40.5736 170.945 40.5736C174.096 40.5736 176.056 38.7091 176.559 35.7314L176.082 35.6479L176.029 35.8984C175.552 38.3474 173.832 39.9057 171.74 39.9057ZM168.906 32.2529C168.906 27.9396 169.462 27.216 170.442 27.216C171.157 27.216 171.687 27.9673 171.687 30.9171C171.687 32.9486 171.236 34.2566 169.568 34.2566H168.906V32.2529Z" fill="#213E26" />
  </g>
</svg>